<svg xmlns="http://www.w3.org/2000/svg" xmlns:xlink="http://www.w3.org/1999/xlink" viewBox="0 0 132 21"><g transform="translate(47.628 12.645)"></g><g><path d="M 27.921 10.972 C 27.818 9.929 27.634 8.897 27.37 7.884 C 27.064 6.75 26.063 5.519 24.408 4.225 C 24.027 3.967 23.516 4.049 23.233 4.414 C 22.952 4.778 22.999 5.302 23.34 5.608 C 24.639 6.617 25.518 7.62 25.692 8.344 C 25.954 9.337 26.129 10.351 26.215 11.374 C 26.346 13.065 26.019 13.452 25.983 13.482 L 25.859 13.482 C 25.689 12.626 25.23 11.857 24.563 11.306 C 23.182 10.166 21.204 10.166 19.823 11.306 C 19.156 11.857 18.697 12.626 18.527 13.482 L 10.048 13.482 C 9.874 12.63 9.415 11.865 8.749 11.319 C 8.079 10.769 7.245 10.47 6.385 10.47 C 5.524 10.47 4.688 10.77 4.022 11.319 C 3.356 11.865 2.897 12.63 2.723 13.482 L 1.931 13.482 C 1.769 13.159 1.701 12.797 1.735 12.436 L 1.735 10.634 C 1.735 9.602 1.807 9.317 2.911 8.944 C 3.624 8.726 4.352 8.565 5.089 8.46 C 6.244 8.27 7.339 8.087 8.153 7.267 L 8.457 6.953 C 9.438 5.907 11.121 4.15 13.576 4.15 L 18.542 4.15 C 18.913 4.183 19.264 3.975 19.419 3.63 C 19.518 3.404 19.518 3.145 19.419 2.918 C 19.32 2.692 19.13 2.519 18.898 2.443 C 18.783 2.404 18.662 2.39 18.542 2.401 L 13.575 2.401 C 10.389 2.401 8.306 4.597 7.18 5.731 C 7.078 5.841 6.984 5.943 6.89 6.031 C 6.27 6.478 5.537 6.732 4.778 6.763 C 3.961 6.88 3.154 7.063 2.366 7.312 C 0.428 7.935 0 8.996 0 10.605 L 0 12.421 C 0.037 14.734 1.177 15.23 2.134 15.23 L 2.78 15.23 C 2.998 16.026 3.468 16.728 4.119 17.228 C 5.46 18.257 7.31 18.257 8.651 17.228 C 9.3 16.73 9.771 16.028 9.989 15.231 L 18.593 15.231 C 18.814 16.025 19.284 16.724 19.933 17.219 C 21.272 18.243 23.115 18.243 24.454 17.219 C 25.102 16.724 25.573 16.025 25.794 15.231 L 25.955 15.231 C 26.526 15.239 27.066 14.967 27.406 14.5 C 27.906 13.833 28.08 12.67 27.921 10.972 Z M 24.197 14.228 C 24.204 14.58 24.122 14.928 23.957 15.239 C 23.781 15.546 23.528 15.801 23.224 15.977 C 22.267 16.534 21.047 16.205 20.487 15.239 C 20.309 14.933 20.216 14.584 20.218 14.228 C 20.221 13.978 20.268 13.73 20.357 13.497 C 20.505 13.12 20.762 12.797 21.094 12.571 C 21.774 12.106 22.664 12.106 23.344 12.571 C 23.676 12.798 23.932 13.121 24.08 13.497 C 24.165 13.731 24.205 13.98 24.196 14.228 Z M 8.385 14.228 C 8.383 14.951 8.002 15.619 7.385 15.978 C 6.429 16.535 5.211 16.205 4.653 15.239 C 4.466 14.936 4.363 14.586 4.355 14.228 C 4.358 13.979 4.405 13.73 4.494 13.497 C 4.643 13.12 4.899 12.798 5.23 12.571 C 5.911 12.105 6.801 12.105 7.482 12.571 C 7.813 12.798 8.07 13.121 8.218 13.497 C 8.317 13.729 8.373 13.976 8.385 14.228 Z" fill="rgb(188, 188, 188)"></path><path d="M 12.825 6.588 C 12.591 6.325 12.226 6.23 11.897 6.346 C 11.567 6.462 11.338 6.767 11.314 7.121 C 11.301 7.353 11.38 7.58 11.533 7.752 L 15.162 11.879 C 15.328 12.065 15.563 12.172 15.809 12.173 C 16.065 12.164 16.304 12.04 16.463 11.836 L 24.622 1.473 C 24.873 1.199 24.924 0.792 24.75 0.462 C 24.635 0.246 24.436 0.088 24.201 0.028 C 23.843 -0.065 23.466 0.079 23.258 0.389 L 15.793 9.905 L 12.824 6.589 Z M 42.873 15.319 L 40.151 15.319 L 41.603 8.484 L 39.425 9.15 L 40.035 6.398 L 45.116 4.861 Z M 53.828 8.981 C 53.828 11.909 51.948 15.51 48.456 15.51 C 46.228 15.51 44.485 14.045 44.485 11.353 C 44.485 8.425 46.365 4.832 49.85 4.832 C 52.072 4.832 53.828 6.281 53.828 8.981 Z M 47.295 11.081 C 47.295 12.246 47.774 12.903 48.594 12.903 C 50.112 12.903 50.932 10.841 50.932 9.245 C 50.932 8.082 50.453 7.415 49.625 7.415 C 48.137 7.43 47.295 9.501 47.295 11.082 Z M 63.462 8.981 C 63.462 11.909 61.582 15.51 58.09 15.51 C 55.861 15.51 54.119 14.045 54.119 11.353 C 54.119 8.425 55.999 4.832 59.483 4.832 C 61.72 4.832 63.462 6.281 63.462 8.981 Z M 56.929 11.081 C 56.929 12.246 57.415 12.903 58.228 12.903 C 59.746 12.903 60.572 10.841 60.572 9.245 C 60.572 8.082 60.093 7.415 59.266 7.415 C 57.786 7.43 56.965 9.501 56.965 11.082 L 56.928 11.082 Z M 67.418 15.319 L 64.718 15.319 L 66.169 8.484 L 63.992 9.15 L 64.572 6.398 L 69.654 4.861 L 67.419 15.319 Z M 92.167 7.987 C 91.881 7.893 91.582 7.841 91.281 7.834 C 90.92 7.817 90.562 7.898 90.242 8.069 C 89.923 8.24 89.655 8.494 89.466 8.806 L 89.641 8.03 L 87.224 8.03 L 85.684 15.349 L 88.297 15.349 L 89.074 11.623 C 89.107 11.285 89.263 10.969 89.512 10.74 C 89.761 10.51 90.088 10.381 90.425 10.379 C 90.796 10.38 91.163 10.443 91.514 10.562 L 92.167 7.986 Z M 96.762 7.832 C 96.397 7.818 96.036 7.904 95.715 8.081 C 95.394 8.257 95.127 8.518 94.941 8.835 L 95.114 8.059 L 92.69 8.059 L 91.151 15.377 L 93.757 15.377 L 94.527 11.652 C 94.561 11.313 94.718 10.999 94.966 10.77 C 95.215 10.541 95.539 10.412 95.877 10.408 C 96.249 10.409 96.62 10.472 96.973 10.59 L 97.634 8.044 C 97.355 7.93 97.062 7.858 96.762 7.832 Z M 101.336 7.833 C 100.236 7.808 99.173 8.236 98.386 9.018 C 97.602 9.794 97.163 10.861 97.169 11.974 C 97.159 12.953 97.553 13.892 98.255 14.561 C 98.962 15.235 99.913 15.579 100.879 15.51 C 101.424 15.519 101.966 15.419 102.472 15.214 C 103.491 14.802 104.304 13.991 104.729 12.963 C 104.938 12.455 105.043 11.91 105.038 11.359 C 105.038 9.142 103.347 7.833 101.336 7.833 Z M 101.017 13.072 C 100.693 13.077 100.383 12.944 100.159 12.707 C 99.937 12.469 99.824 12.147 99.848 11.821 C 99.832 11.44 99.963 11.068 100.214 10.785 C 100.465 10.501 100.816 10.326 101.191 10.299 C 101.516 10.295 101.828 10.426 102.054 10.663 C 102.278 10.9 102.395 11.221 102.374 11.549 C 102.39 11.933 102.257 12.306 102.004 12.59 C 101.749 12.875 101.395 13.048 101.017 13.072 Z M 109.554 10.716 L 109.134 10.613 C 108.407 10.445 108.132 10.452 108.167 10.153 C 108.167 10.006 108.357 9.918 108.893 9.918 C 109.683 9.96 110.454 10.185 111.145 10.577 L 112.132 8.659 C 111.122 8.118 109.999 7.834 108.857 7.833 C 106.955 7.833 105.75 8.564 105.54 10.153 C 105.38 11.375 105.91 12.282 107.602 12.604 L 108.022 12.685 C 108.683 12.809 108.938 12.89 108.908 13.145 C 108.879 13.402 108.748 13.423 108.182 13.423 C 107.304 13.384 106.45 13.111 105.707 12.633 L 104.647 14.543 C 105.653 15.204 106.832 15.541 108.03 15.51 C 110.099 15.51 111.304 14.777 111.508 13.043 C 111.638 11.909 111.1 11.031 109.554 10.716 Z M 83.818 8.03 L 83.702 8.564 C 83.188 8.065 82.496 7.801 81.786 7.833 C 81.5 7.831 81.216 7.86 80.936 7.921 C 80.228 8.098 79.582 8.47 79.068 8.997 C 78.556 9.521 78.198 10.18 78.033 10.899 C 77.872 11.577 77.492 12.18 76.953 12.611 C 76.412 13.044 75.744 13.281 75.056 13.285 C 74.313 13.322 73.591 13.037 73.066 12.502 C 72.547 11.967 72.277 11.232 72.326 10.482 C 72.268 9.605 72.567 8.743 73.154 8.098 C 73.742 7.448 74.565 7.069 75.434 7.05 C 76.284 7.024 77.095 7.416 77.611 8.104 L 80.305 6.64 C 80.099 6.313 79.856 6.014 79.579 5.748 C 78.478 4.754 77.043 4.229 75.572 4.284 C 74.739 4.269 73.912 4.425 73.14 4.742 C 72.369 5.058 71.669 5.53 71.085 6.128 C 70.5 6.723 70.04 7.434 69.734 8.216 C 69.428 8.996 69.282 9.832 69.306 10.672 C 69.306 13.892 71.542 16.058 74.882 16.058 C 76.333 16.084 77.748 15.601 78.889 14.69 C 79.396 15.214 80.089 15.51 80.813 15.51 C 81.441 15.515 82.045 15.265 82.49 14.814 L 82.388 15.32 L 84.878 15.32 L 86.41 8.001 Z M 83.092 11.733 C 83.075 12.083 82.927 12.414 82.68 12.661 C 82.432 12.907 82.103 13.052 81.757 13.065 C 81.521 13.062 81.293 12.986 81.101 12.847 C 80.911 12.709 80.767 12.514 80.689 12.29 C 80.637 12.137 80.612 11.976 80.617 11.814 C 80.61 11.347 80.8 10.899 81.14 10.585 C 81.368 10.379 81.661 10.265 81.967 10.262 C 82.332 10.267 82.675 10.44 82.9 10.732 C 83.123 11.024 83.202 11.404 83.114 11.763 Z M 117.112 11.909 C 116.87 11.541 116.459 11.325 116.023 11.338 C 115.623 11.348 115.243 11.52 114.967 11.816 C 114.695 12.111 114.552 12.506 114.57 12.911 C 114.548 13.228 114.656 13.541 114.869 13.774 C 115.083 14.009 115.382 14.144 115.696 14.148 C 116.117 14.152 116.52 13.971 116.8 13.651 L 117.715 14.5 C 117.194 15.097 116.444 15.434 115.659 15.422 C 115.004 15.459 114.364 15.217 113.89 14.756 C 113.418 14.296 113.159 13.656 113.177 12.992 C 113.177 12.216 113.483 11.472 114.027 10.922 C 114.574 10.372 115.312 10.064 116.081 10.065 C 116.972 10.003 117.819 10.467 118.258 11.258 L 117.112 11.91 Z" fill="rgb(188, 188, 188)"></path><path d="M 123.346 12.532 C 123.347 13.317 123.034 14.07 122.48 14.617 C 121.923 15.168 121.174 15.471 120.398 15.459 C 119.732 15.5 119.078 15.258 118.594 14.791 C 118.112 14.326 117.844 13.676 117.857 13 C 117.856 12.214 118.169 11.461 118.724 10.914 C 119.279 10.362 120.029 10.059 120.805 10.073 C 121.472 10.033 122.125 10.275 122.61 10.741 C 123.092 11.206 123.359 11.856 123.346 12.532 Z M 119.258 12.934 C 119.242 13.271 119.366 13.599 119.6 13.838 C 119.833 14.077 120.155 14.206 120.486 14.192 C 120.885 14.178 121.262 14.005 121.536 13.71 C 121.807 13.415 121.952 13.022 121.938 12.619 C 121.964 12.103 121.661 11.628 121.186 11.443 C 121.033 11.382 120.868 11.354 120.704 11.361 C 120.303 11.372 119.924 11.546 119.65 11.844 C 119.379 12.141 119.238 12.537 119.258 12.942 Z M 131.999 11.8 C 132 11.984 131.982 12.168 131.942 12.348 L 131.303 15.341 L 129.924 15.341 L 130.54 12.465 C 130.564 12.352 130.576 12.237 130.577 12.121 C 130.577 11.705 130.367 11.39 129.771 11.39 C 129.443 11.39 129.127 11.516 128.886 11.741 C 128.645 11.966 128.498 12.274 128.472 12.604 L 127.891 15.357 L 126.526 15.357 L 127.136 12.48 C 127.252 11.931 127.136 11.39 126.41 11.39 C 126.082 11.39 125.766 11.516 125.525 11.741 C 125.284 11.965 125.136 12.274 125.11 12.604 L 124.529 15.357 L 123.157 15.357 L 124.239 10.233 L 125.561 10.233 L 125.444 10.753 C 125.809 10.328 126.341 10.089 126.896 10.102 C 127.52 10.064 128.109 10.398 128.406 10.958 C 128.843 10.388 129.525 10.069 130.236 10.102 C 130.698 10.067 131.155 10.231 131.492 10.555 C 131.827 10.878 132.012 11.331 131.999 11.8 Z M 111.752 13.132 C 111.693 13.89 111.34 14.593 110.772 15.086 C 111.029 15.38 111.412 15.526 111.796 15.476 C 112.18 15.426 112.515 15.187 112.691 14.837 C 112.96 14.3 112.784 13.643 112.285 13.318 C 112.125 13.213 111.942 13.149 111.752 13.132 Z" fill="rgb(188, 188, 188)"></path></g></svg>